<mxfile host="app.diagrams.net" modified="2020-11-09T20:29:52.243Z" agent="5.0 (Windows NT 10.0; Win64; x64) AppleWebKit/537.36 (KHTML, like Gecko) Chrome/86.0.4240.183 Safari/537.36" etag="F0eMdRdha2s7XMudsOvP" version="13.9.1" type="github">
  <diagram id="g0dn7Org-z-N9JJK-r2b" name="Page-1">
    <mxGraphModel dx="1422" dy="794" grid="1" gridSize="10" guides="1" tooltips="1" connect="1" arrows="1" fold="1" page="1" pageScale="1" pageWidth="1169" pageHeight="827" math="0" shadow="0">
      <root>
        <mxCell id="0" />
        <mxCell id="1" parent="0" />
        <mxCell id="W8oomiM3XH0VMZYA9GTn-3" value="&lt;div style=&quot;font-size: 17px&quot;&gt;&lt;b style=&quot;font-size: 17px&quot;&gt;Ekosystem bankowości&lt;/b&gt;&lt;/div&gt;&lt;div&gt;&lt;i&gt;&lt;font style=&quot;font-size: 12px&quot;&gt;rok akademicki 2020/21, semestr zimowy&lt;/font&gt;&lt;/i&gt;&lt;/div&gt;" style="rounded=0;whiteSpace=wrap;html=1;fillColor=#dae8fc;strokeColor=#6c8ebf;fontFamily=Helvetica;align=center;fontSize=17;" parent="1" vertex="1">
          <mxGeometry x="32.5" y="40" width="1110" height="60" as="geometry" />
        </mxCell>
        <mxCell id="W8oomiM3XH0VMZYA9GTn-80" value="&lt;div&gt;&lt;font&gt;&lt;b&gt;Karol Lech&lt;/b&gt;&lt;/font&gt;&lt;/div&gt;&lt;div&gt;&lt;font&gt;&lt;b&gt;Przemysław Pleśniarski&lt;/b&gt;&lt;/font&gt;&lt;/div&gt;&lt;div&gt;&lt;font&gt;&lt;b&gt;Krzysztof Podkulski&lt;/b&gt;&lt;/font&gt;&lt;/div&gt;&lt;div&gt;&lt;font&gt;&lt;b&gt;Janusz Siek&lt;/b&gt;&lt;/font&gt;&lt;/div&gt;&lt;div&gt;&lt;b&gt;Marcin Wielgos&lt;/b&gt;&lt;/div&gt;&lt;div&gt;&lt;u&gt;&lt;i&gt;LAB 3&lt;/i&gt;&lt;/u&gt;&lt;/div&gt;" style="rounded=0;whiteSpace=wrap;html=1;fillColor=#dae8fc;strokeColor=#6c8ebf;align=right;fontFamily=Helvetica;labelBackgroundColor=none;labelBorderColor=none;strokeWidth=1;glass=0;shadow=0;sketch=0;" parent="1" vertex="1">
          <mxGeometry x="912.5" y="110" width="230" height="110" as="geometry" />
        </mxCell>
        <mxCell id="SgNjyL0RrGuz2-2YGvZn-1" value="DEJLI" style="text;html=1;strokeColor=none;fillColor=none;align=center;verticalAlign=middle;whiteSpace=wrap;rounded=0;fontSize=40;fontStyle=1" parent="1" vertex="1">
          <mxGeometry x="560" y="120" width="40" height="20" as="geometry" />
        </mxCell>
        <mxCell id="SgNjyL0RrGuz2-2YGvZn-2" value="" style="rounded=0;whiteSpace=wrap;html=1;fontSize=40;" parent="1" vertex="1">
          <mxGeometry x="100" y="230" width="680" height="580" as="geometry" />
        </mxCell>
        <mxCell id="SgNjyL0RrGuz2-2YGvZn-4" value="" style="rounded=0;whiteSpace=wrap;html=1;fontSize=40;" parent="1" vertex="1">
          <mxGeometry x="130" y="300" width="580" height="230" as="geometry" />
        </mxCell>
        <mxCell id="SgNjyL0RrGuz2-2YGvZn-5" value="Zarządzanie klientami" style="text;html=1;strokeColor=none;fillColor=none;align=center;verticalAlign=middle;whiteSpace=wrap;rounded=0;fontSize=12;" parent="1" vertex="1">
          <mxGeometry x="340" y="310" width="160" height="20" as="geometry" />
        </mxCell>
        <mxCell id="SgNjyL0RrGuz2-2YGvZn-6" value="" style="rounded=0;whiteSpace=wrap;html=1;fontSize=40;" parent="1" vertex="1">
          <mxGeometry x="130" y="550" width="620" height="250" as="geometry" />
        </mxCell>
        <mxCell id="SgNjyL0RrGuz2-2YGvZn-7" value="Prowadzenie rachunków" style="text;html=1;strokeColor=none;fillColor=none;align=center;verticalAlign=middle;whiteSpace=wrap;rounded=0;fontSize=12;" parent="1" vertex="1">
          <mxGeometry x="340" y="560" width="160" height="20" as="geometry" />
        </mxCell>
        <mxCell id="SgNjyL0RrGuz2-2YGvZn-21" value="&lt;font style=&quot;font-size: 18px&quot;&gt;BANK&lt;/font&gt;" style="text;html=1;strokeColor=none;fillColor=none;align=center;verticalAlign=middle;whiteSpace=wrap;rounded=0;fontSize=12;" parent="1" vertex="1">
          <mxGeometry x="395" y="260" width="40" height="20" as="geometry" />
        </mxCell>
        <mxCell id="SgNjyL0RrGuz2-2YGvZn-22" value="" style="rounded=0;whiteSpace=wrap;html=1;fontSize=12;" parent="1" vertex="1">
          <mxGeometry x="100" y="860" width="800" height="350" as="geometry" />
        </mxCell>
        <mxCell id="SgNjyL0RrGuz2-2YGvZn-23" value="&lt;font style=&quot;font-size: 18px&quot;&gt;JR&lt;/font&gt;" style="text;html=1;strokeColor=none;fillColor=none;align=center;verticalAlign=middle;whiteSpace=wrap;rounded=0;fontSize=12;" parent="1" vertex="1">
          <mxGeometry x="480" y="880" width="40" height="20" as="geometry" />
        </mxCell>
        <mxCell id="SgNjyL0RrGuz2-2YGvZn-28" value="Moduł weryfikacji na podstawie zgromadzonej historii transakcji" style="rounded=0;whiteSpace=wrap;html=1;fontSize=12;" parent="1" vertex="1">
          <mxGeometry x="310" y="1020" width="120" height="60" as="geometry" />
        </mxCell>
        <mxCell id="SgNjyL0RrGuz2-2YGvZn-34" value="Zgodnie z sesjami godzinowowymi + Statusowanie" style="rounded=0;whiteSpace=wrap;html=1;fontSize=12;" parent="1" vertex="1">
          <mxGeometry x="150" y="1120" width="730" height="60" as="geometry" />
        </mxCell>
        <mxCell id="SgNjyL0RrGuz2-2YGvZn-52" style="edgeStyle=orthogonalEdgeStyle;rounded=0;orthogonalLoop=1;jettySize=auto;html=1;exitX=0.5;exitY=0.5;exitDx=0;exitDy=0;exitPerimeter=0;entryX=0;entryY=0.5;entryDx=0;entryDy=0;fontSize=12;" parent="1" source="SgNjyL0RrGuz2-2YGvZn-48" target="SgNjyL0RrGuz2-2YGvZn-51" edge="1">
          <mxGeometry relative="1" as="geometry" />
        </mxCell>
        <mxCell id="SgNjyL0RrGuz2-2YGvZn-48" value="Operator" style="shape=umlActor;verticalLabelPosition=bottom;verticalAlign=top;html=1;outlineConnect=0;fontSize=12;fillColor=#fff2cc;strokeColor=#d6b656;" parent="1" vertex="1">
          <mxGeometry x="32.5" y="330" width="30" height="60" as="geometry" />
        </mxCell>
        <mxCell id="SgNjyL0RrGuz2-2YGvZn-51" value="" style="rounded=0;whiteSpace=wrap;html=1;fontSize=12;fillColor=#dae8fc;strokeColor=#6c8ebf;" parent="1" vertex="1">
          <mxGeometry x="150" y="330" width="440" height="80" as="geometry" />
        </mxCell>
        <mxCell id="SgNjyL0RrGuz2-2YGvZn-9" value="CRUD Klientów" style="rounded=0;whiteSpace=wrap;html=1;fontSize=12;" parent="1" vertex="1">
          <mxGeometry x="170" y="340" width="120" height="60" as="geometry" />
        </mxCell>
        <mxCell id="SgNjyL0RrGuz2-2YGvZn-12" value="Skojarzenie konta&lt;br&gt;z użytkownikiem" style="rounded=0;whiteSpace=wrap;html=1;fontSize=12;" parent="1" vertex="1">
          <mxGeometry x="310" y="340" width="120" height="60" as="geometry" />
        </mxCell>
        <mxCell id="SgNjyL0RrGuz2-2YGvZn-55" style="edgeStyle=orthogonalEdgeStyle;rounded=0;orthogonalLoop=1;jettySize=auto;html=1;exitX=0.5;exitY=0.5;exitDx=0;exitDy=0;exitPerimeter=0;entryX=0;entryY=0.5;entryDx=0;entryDy=0;fontSize=12;" parent="1" source="SgNjyL0RrGuz2-2YGvZn-53" target="SgNjyL0RrGuz2-2YGvZn-54" edge="1">
          <mxGeometry relative="1" as="geometry" />
        </mxCell>
        <mxCell id="SgNjyL0RrGuz2-2YGvZn-53" value="Klient" style="shape=umlActor;verticalLabelPosition=bottom;verticalAlign=top;html=1;outlineConnect=0;fontSize=12;fillColor=#d5e8d4;strokeColor=#82b366;" parent="1" vertex="1">
          <mxGeometry x="32.5" y="450" width="30" height="60" as="geometry" />
        </mxCell>
        <mxCell id="SgNjyL0RrGuz2-2YGvZn-54" value="" style="rounded=0;whiteSpace=wrap;html=1;fontSize=12;fillColor=#dae8fc;strokeColor=#6c8ebf;" parent="1" vertex="1">
          <mxGeometry x="150" y="430" width="440" height="80" as="geometry" />
        </mxCell>
        <mxCell id="SgNjyL0RrGuz2-2YGvZn-14" value="Autoryzacja&lt;br&gt;logowanie / wylogowanie" style="rounded=0;whiteSpace=wrap;html=1;fontSize=12;" parent="1" vertex="1">
          <mxGeometry x="450" y="384" width="120" height="60" as="geometry" />
        </mxCell>
        <mxCell id="SgNjyL0RrGuz2-2YGvZn-18" value="Modyfikacja&lt;br&gt;danych personalnych" style="rounded=0;whiteSpace=wrap;html=1;fontSize=12;" parent="1" vertex="1">
          <mxGeometry x="170" y="436" width="120" height="60" as="geometry" />
        </mxCell>
        <mxCell id="SgNjyL0RrGuz2-2YGvZn-58" value="" style="rounded=0;whiteSpace=wrap;html=1;fontSize=12;fillColor=#dae8fc;strokeColor=#6c8ebf;" parent="1" vertex="1">
          <mxGeometry x="150" y="580" width="440" height="80" as="geometry" />
        </mxCell>
        <mxCell id="SgNjyL0RrGuz2-2YGvZn-15" value="CRUD Rachunków" style="rounded=0;whiteSpace=wrap;html=1;fontSize=12;" parent="1" vertex="1">
          <mxGeometry x="170" y="590" width="120" height="60" as="geometry" />
        </mxCell>
        <mxCell id="SgNjyL0RrGuz2-2YGvZn-56" value="Stan konta" style="rounded=0;whiteSpace=wrap;html=1;fontSize=12;" parent="1" vertex="1">
          <mxGeometry x="310" y="590" width="120" height="60" as="geometry" />
        </mxCell>
        <mxCell id="SgNjyL0RrGuz2-2YGvZn-57" value="Historia transakcji" style="rounded=0;whiteSpace=wrap;html=1;fontSize=12;" parent="1" vertex="1">
          <mxGeometry x="450" y="590" width="120" height="60" as="geometry" />
        </mxCell>
        <mxCell id="SgNjyL0RrGuz2-2YGvZn-59" value="" style="rounded=0;whiteSpace=wrap;html=1;fontSize=12;fillColor=#dae8fc;strokeColor=#6c8ebf;" parent="1" vertex="1">
          <mxGeometry x="150" y="700" width="590" height="80" as="geometry" />
        </mxCell>
        <mxCell id="SgNjyL0RrGuz2-2YGvZn-16" value="Stan konta" style="rounded=0;whiteSpace=wrap;html=1;fontSize=12;" parent="1" vertex="1">
          <mxGeometry x="450" y="710" width="120" height="60" as="geometry" />
        </mxCell>
        <mxCell id="SgNjyL0RrGuz2-2YGvZn-17" value="Historia transakcji" style="rounded=0;whiteSpace=wrap;html=1;fontSize=12;" parent="1" vertex="1">
          <mxGeometry x="590" y="710" width="120" height="60" as="geometry" />
        </mxCell>
        <mxCell id="SgNjyL0RrGuz2-2YGvZn-19" value="Wysłanie przelewu" style="rounded=0;whiteSpace=wrap;html=1;fontSize=12;" parent="1" vertex="1">
          <mxGeometry x="170" y="710" width="120" height="60" as="geometry" />
        </mxCell>
        <mxCell id="SgNjyL0RrGuz2-2YGvZn-20" value="Odebranie przelewu" style="rounded=0;whiteSpace=wrap;html=1;fontSize=12;" parent="1" vertex="1">
          <mxGeometry x="310" y="710" width="120" height="60" as="geometry" />
        </mxCell>
        <mxCell id="SgNjyL0RrGuz2-2YGvZn-62" style="edgeStyle=orthogonalEdgeStyle;rounded=0;orthogonalLoop=1;jettySize=auto;html=1;exitX=0.5;exitY=0.5;exitDx=0;exitDy=0;exitPerimeter=0;fontSize=12;" parent="1" source="SgNjyL0RrGuz2-2YGvZn-60" target="SgNjyL0RrGuz2-2YGvZn-58" edge="1">
          <mxGeometry relative="1" as="geometry" />
        </mxCell>
        <mxCell id="SgNjyL0RrGuz2-2YGvZn-60" value="Operator" style="shape=umlActor;verticalLabelPosition=bottom;verticalAlign=top;html=1;outlineConnect=0;fontSize=12;fillColor=#fff2cc;strokeColor=#d6b656;" parent="1" vertex="1">
          <mxGeometry x="32.5" y="600" width="30" height="60" as="geometry" />
        </mxCell>
        <mxCell id="SgNjyL0RrGuz2-2YGvZn-63" style="edgeStyle=orthogonalEdgeStyle;rounded=0;orthogonalLoop=1;jettySize=auto;html=1;exitX=0.5;exitY=0.5;exitDx=0;exitDy=0;exitPerimeter=0;entryX=0;entryY=0.5;entryDx=0;entryDy=0;fontSize=12;" parent="1" source="SgNjyL0RrGuz2-2YGvZn-61" target="SgNjyL0RrGuz2-2YGvZn-59" edge="1">
          <mxGeometry relative="1" as="geometry" />
        </mxCell>
        <mxCell id="SgNjyL0RrGuz2-2YGvZn-61" value="Klient" style="shape=umlActor;verticalLabelPosition=bottom;verticalAlign=top;html=1;outlineConnect=0;fontSize=12;fillColor=#d5e8d4;strokeColor=#82b366;" parent="1" vertex="1">
          <mxGeometry x="32.5" y="700" width="30" height="60" as="geometry" />
        </mxCell>
        <mxCell id="SgNjyL0RrGuz2-2YGvZn-65" value="" style="rounded=0;whiteSpace=wrap;html=1;fontSize=12;fillColor=#f8cecc;strokeColor=#b85450;" parent="1" vertex="1">
          <mxGeometry x="150" y="930" width="730" height="80" as="geometry" />
        </mxCell>
        <mxCell id="SgNjyL0RrGuz2-2YGvZn-27" value="Przyjęcie zlecenia&lt;br&gt;przelewu" style="rounded=0;whiteSpace=wrap;html=1;fontSize=12;" parent="1" vertex="1">
          <mxGeometry x="170" y="940" width="120" height="60" as="geometry" />
        </mxCell>
        <mxCell id="SgNjyL0RrGuz2-2YGvZn-29" value="Historia transakcji" style="rounded=0;whiteSpace=wrap;html=1;fontSize=12;" parent="1" vertex="1">
          <mxGeometry x="310" y="940" width="120" height="60" as="geometry" />
        </mxCell>
        <mxCell id="SgNjyL0RrGuz2-2YGvZn-32" value="Wysłanie przelewu&lt;br&gt;do odbiorcy" style="rounded=0;whiteSpace=wrap;html=1;fontSize=12;" parent="1" vertex="1">
          <mxGeometry x="590" y="940" width="120" height="60" as="geometry" />
        </mxCell>
        <mxCell id="SgNjyL0RrGuz2-2YGvZn-33" value="Odebranie&lt;br&gt;przelewu&lt;br&gt;przez bank odbiorczy" style="rounded=0;whiteSpace=wrap;html=1;fontSize=12;" parent="1" vertex="1">
          <mxGeometry x="730" y="940" width="120" height="60" as="geometry" />
        </mxCell>
        <mxCell id="SgNjyL0RrGuz2-2YGvZn-67" style="edgeStyle=orthogonalEdgeStyle;rounded=0;orthogonalLoop=1;jettySize=auto;html=1;exitX=0.5;exitY=0.5;exitDx=0;exitDy=0;exitPerimeter=0;entryX=0;entryY=0.5;entryDx=0;entryDy=0;fontSize=12;" parent="1" source="SgNjyL0RrGuz2-2YGvZn-66" target="SgNjyL0RrGuz2-2YGvZn-65" edge="1">
          <mxGeometry relative="1" as="geometry" />
        </mxCell>
        <mxCell id="SgNjyL0RrGuz2-2YGvZn-66" value="System &lt;br&gt;autonomiczny" style="shape=umlActor;verticalLabelPosition=bottom;verticalAlign=top;html=1;outlineConnect=0;fontSize=12;fillColor=#f8cecc;strokeColor=#b85450;" parent="1" vertex="1">
          <mxGeometry x="32.5" y="940" width="30" height="60" as="geometry" />
        </mxCell>
        <mxCell id="SgNjyL0RrGuz2-2YGvZn-70" style="edgeStyle=orthogonalEdgeStyle;rounded=0;orthogonalLoop=1;jettySize=auto;html=1;exitX=0.5;exitY=0.5;exitDx=0;exitDy=0;exitPerimeter=0;entryX=0;entryY=0.5;entryDx=0;entryDy=0;fontSize=12;" parent="1" source="SgNjyL0RrGuz2-2YGvZn-68" target="SgNjyL0RrGuz2-2YGvZn-28" edge="1">
          <mxGeometry relative="1" as="geometry" />
        </mxCell>
        <mxCell id="SgNjyL0RrGuz2-2YGvZn-68" value="Operator" style="shape=umlActor;verticalLabelPosition=bottom;verticalAlign=top;html=1;outlineConnect=0;fontSize=12;fillColor=#fff2cc;strokeColor=#d6b656;" parent="1" vertex="1">
          <mxGeometry x="32.5" y="1050" width="30" height="60" as="geometry" />
        </mxCell>
        <mxCell id="Kz4w3yk4jUIDKmfxEzkE-1" value="Sprawdzenie&lt;br&gt;czy istnieje&lt;br&gt;konto odbiorcy" style="rounded=0;whiteSpace=wrap;html=1;fontSize=12;" vertex="1" parent="1">
          <mxGeometry x="450" y="940" width="120" height="60" as="geometry" />
        </mxCell>
      </root>
    </mxGraphModel>
  </diagram>
</mxfile>
